<svg width="72" height="72" viewBox="0 0 72 72" fill="none" xmlns="http://www.w3.org/2000/svg">
<path d="M24 9C15.717 9 9 15.717 9 24V48C9 56.283 15.717 63 24 63H48C56.283 63 63 56.283 63 48V24C63 15.717 56.283 9 48 9H24ZM54 15C55.656 15 57 16.344 57 18C57 19.656 55.656 21 54 21C52.344 21 51 19.656 51 18C51 16.344 52.344 15 54 15ZM36 21C44.283 21 51 27.717 51 36C51 44.283 44.283 51 36 51C27.717 51 21 44.283 21 36C21 27.717 27.717 21 36 21ZM36 27C33.6131 27 31.3239 27.9482 29.636 29.636C27.9482 31.3239 27 33.6131 27 36C27 38.3869 27.9482 40.6761 29.636 42.364C31.3239 44.0518 33.6131 45 36 45C38.3869 45 40.6761 44.0518 42.364 42.364C44.0518 40.6761 45 38.3869 45 36C45 33.6131 44.0518 31.3239 42.364 29.636C40.6761 27.9482 38.3869 27 36 27Z" fill="#ECB8B8"/>
</svg>
